HIERARCHY
ROOT Hips
{
  OFFSET 0.0 0.0 0.0
  CHANNELS 6 Xposition Yposition Zposition Zrotation Yrotation Xrotation
  JOINT LHipJoint
  {
    OFFSET 0.0 0.0 0.0
    CHANNELS 3 Zrotation Yrotation Xrotation
    JOINT LeftUpLeg
    {
      OFFSET 1.363059998 -1.794630051 0.839290023
      CHANNELS 3 Zrotation Yrotation Xrotation
      JOINT LeftLeg
      {
        OFFSET 2.448110104 -6.726130009 0.0
        CHANNELS 3 Zrotation Yrotation Xrotation
        JOINT LeftFoot
        {
          OFFSET 2.562200069 -7.039589882 0.0
          CHANNELS 3 Zrotation Yrotation Xrotation
          JOINT LeftToeBase
          {
            OFFSET 0.157639995 -0.433109999 2.322550058
            CHANNELS 3 Zrotation Yrotation Xrotation
            End Site
            {
              OFFSET 0.0 -0.0 1.189659953
            }
          }
        }
      }
    }
  }
  JOINT RHipJoint
  {
    OFFSET 0.0 0.0 0.0
    CHANNELS 3 Zrotation Yrotation Xrotation
    JOINT RightUpLeg
    {
      OFFSET -1.305520058 -1.794630051 0.839290023
      CHANNELS 3 Zrotation Yrotation Xrotation
      JOINT RightLeg
      {
        OFFSET -2.54253006 -6.985549927 0.0
        CHANNELS 3 Zrotation Yrotation Xrotation
        JOINT RightFoot
        {
          OFFSET -2.568259954 -7.056230068 0.0
          CHANNELS 3 Zrotation Yrotation Xrotation
          JOINT RightToeBase
          {
            OFFSET -0.164729998 -0.452589989 2.363149881
            CHANNELS 3 Zrotation Yrotation Xrotation
            End Site
            {
              OFFSET -0.0 -0.0 1.21081996
            }
          }
        }
      }
    }
  }
  JOINT LowerBack
  {
    OFFSET 0.0 0.0 0.0
    CHANNELS 3 Zrotation Yrotation Xrotation
    JOINT Spine
    {
      OFFSET 0.028270001 2.035589933 -0.193379998
      CHANNELS 3 Zrotation Yrotation Xrotation
      JOINT Spine1
      {
        OFFSET 0.05672 2.04885006 -0.042750001
        CHANNELS 3 Zrotation Yrotation Xrotation
        JOINT Neck
        {
          OFFSET 0.0 0.0 0.0
          CHANNELS 3 Zrotation Yrotation Xrotation
          JOINT Neck1
          {
            OFFSET -0.054170001 1.74624002 0.172020003
            CHANNELS 3 Zrotation Yrotation Xrotation
            JOINT Head
            {
              OFFSET 0.10407 1.761360049 -0.123970002
              CHANNELS 3 Zrotation Yrotation Xrotation
              End Site
              {
                OFFSET 0.0372 1.770439982 -0.062410001
              }
            }
          }
        }
        JOINT LeftShoulder
        {
          OFFSET 0.0 0.0 0.0
          CHANNELS 3 Zrotation Yrotation Xrotation
          JOINT LeftArm
          {
            OFFSET 3.362410069 1.200889945 -0.311210006
            CHANNELS 3 Zrotation Yrotation Xrotation
            JOINT LeftForeArm
            {
              OFFSET 4.982999802 -0.0 -0.0
              CHANNELS 3 Zrotation Yrotation Xrotation
              JOINT LeftHand
              {
                OFFSET 3.483560085 -0.0 -0.0
                CHANNELS 3 Zrotation Yrotation Xrotation
                JOINT LeftFingerBase
                {
                  OFFSET 0.0 0.0 0.0
                  CHANNELS 3 Zrotation Yrotation Xrotation
                  JOINT LeftHandIndex1
                  {
                    OFFSET 0.715260029 -0.0 -0.0
                    CHANNELS 3 Zrotation Yrotation Xrotation
                    End Site
                    {
                      OFFSET 0.576659977 -0.0 -0.0
                    }
                  }
                }
                JOINT LThumb
                {
                  OFFSET 0.0 0.0 0.0
                  CHANNELS 3 Zrotation Yrotation Xrotation
                  End Site
                  {
                    OFFSET 0.585470021 -0.0 0.585470021
                  }
                }
              }
            }
          }
        }
        JOINT RightShoulder
        {
          OFFSET 0.0 0.0 0.0
          CHANNELS 3 Zrotation Yrotation Xrotation
          JOINT RightArm
          {
            OFFSET -3.136600018 1.374050021 -0.404650003
            CHANNELS 3 Zrotation Yrotation Xrotation
            JOINT RightForeArm
            {
              OFFSET -5.241899967 -0.0 -0.0
              CHANNELS 3 Zrotation Yrotation Xrotation
              JOINT RightHand
              {
                OFFSET -3.444169998 -0.0 -0.0
                CHANNELS 3 Zrotation Yrotation Xrotation
                JOINT RightFingerBase
                {
                  OFFSET 0.0 0.0 0.0
                  CHANNELS 3 Zrotation Yrotation Xrotation
                  JOINT RightHandIndex1
                  {
                    OFFSET -0.622529984 -0.0 -0.0
                    CHANNELS 3 Zrotation Yrotation Xrotation
                    End Site
                    {
                      OFFSET -0.501900017 -0.0 -0.0
                    }
                  }
                }
                JOINT RThumb
                {
                  OFFSET 0.0 0.0 0.0
                  CHANNELS 3 Zrotation Yrotation Xrotation
                  End Site
                  {
                    OFFSET -0.509559989 -0.0 0.509559989
                  }
                }
              }
            }
          }
        }
      }
    }
  }
}
MOTION
Frames: 9
Frame Time: 0.0083333
0.0 17.518600464 0.0 171.87600708 -69.803794861 -170.333999634 0.0 -0.0 0.0 -20.951202393 6.844099522 -4.043700218 1.707500577 8.228301048 23.409704208 0.733699918 -8.453802109 -15.499199867 0.015499997 0.80279994 2.206299782 0.0 -0.0 0.0 20.358097076 2.066697359 -34.998397827 -2.721799612 -10.230501175 29.726503372 0.110000022 -6.597198963 -5.61729908 -0.297200024 -3.505599976 9.689699173 -5.587300301 -0.756899834 8.676801682 0.100799993 -1.588399768 3.353499651 3.395999432 -0.884599924 -1.227299809 -14.149102211 -12.300800323 8.967802048 6.560200214 -19.028604507 15.010601044 3.586800098 -10.124700546 5.107400894 0.0 -0.0 0.0 -67.109886169 -4.851803303 16.83649826 30.839599609 -41.602291107 -11.963195801 0.0 0.0 -9.141500473 21.406700134 -8.937001228 -3.485100269 -7.125 0.0 0.0 -3.954399109 20.403295517 2.333199978 0.0 -0.0 0.0 56.298103333 6.950201035 -7.669999599 -111.54839325 58.170719147 -78.546798706 0.0 -0.0 5.923099995 -31.410097122 -17.751399994 10.546497345 7.125 -0.0 0.0 -3.429798841 -50.509395599 0.466198951 
0.005849838 25.5814991 0.033298492 -173.340209961 4.223998547 -175.010025024 0.0 -0.0 0.0 -8.626099586 -6.156099796 -33.279899597 3.223899603 11.048997879 32.445301056 3.954699755 -7.898798943 -36.286201477 0.0145 -0.777100027 -2.135600328 0.0 -0.0 0.0 27.493297577 15.744703293 -28.816200256 -2.238899946 -9.347000122 26.886806488 -0.622598946 -26.405601501 -40.118198395 -1.593299747 7.961899757 -22.598495483 -4.171700478 1.029000521 35.356006622 3.587399721 4.770900249 13.979798317 4.272999287 3.838700771 -2.903799772 -12.927798271 -22.286598206 -2.84629941 30.736400604 -29.809200287 -9.931800842 8.276801109 -14.660601616 4.41590023 0.0 -0.0 0.0 -47.5115242 -81.697357178 4.50057888 12.975001335 -21.250505447 -2.444200993 0.0 -0.0 32.055908203 13.682299614 -21.534202576 -5.106300354 -7.125 0.0 0.0 -9.508403778 8.123301506 8.186001778 0.0 -0.0 0.0 75.64138031 84.356277466 28.70718956 -14.870699883 23.965698242 -3.173199654 0.0 -0.0 26.990098953 -15.894301414 -3.489499569 0.992900014 7.125 -0.0 0.0 8.748398781 -33.512996674 2.488502026 
-0.011650085 25.55450058 0.107498169 -173.352005005 3.440008402 -174.783996582 0.0 -0.0 0.0 -8.573200226 -7.116798401 -33.796798706 3.23450017 11.06539917 32.500701904 3.929100037 -7.865200043 -36.164608002 0.013000001 -0.735499918 -2.021199703 0.0 -0.0 0.0 27.263196945 15.284601212 -29.623298645 -2.221600056 -9.313199043 26.780097961 -0.128699914 -27.637197495 -39.335597992 -1.568900108 7.90360117 -22.421600342 -3.552699804 0.535900056 35.176605225 3.549699545 4.330299854 13.900799751 4.064500332 3.643400192 -2.863600254 -12.773500443 -22.320497513 -3.037899494 30.795806885 -29.795497894 -10.093399048 8.265802383 -14.64150238 4.384100914 0.0 -0.0 0.0 -45.21263504 -81.972267151 2.298200607 12.803300858 -20.998300552 -2.3822999 0.0 -0.0 32.685798645 13.456300735 -21.232803345 -4.952501297 -7.125 0.0 0.0 -9.641001701 8.451699257 8.239899635 0.0 -0.0 0.0 77.524421692 85.319389343 29.678747177 -14.223300934 23.053001404 -2.915000439 0.0 -0.0 28.023002625 -15.89840126 -3.333800077 0.948899746 7.125 -0.0 0.0 8.726799011 -33.353199005 2.516400576 
-0.011149406 25.53030014 0.170101166 -173.399002075 3.557997227 -174.934997559 0.0 -0.0 0.0 -8.601500511 -7.093500137 -33.908596039 3.24710083 11.084702492 32.566104889 3.936800718 -7.621302605 -36.226398468 0.013300002 -0.744000137 -2.044600487 0.0 -0.0 0.0 27.231105804 15.311602592 -29.639499664 -2.205699682 -9.281998634 26.681398392 -0.058600929 -27.784698486 -39.193706512 -1.605199933 7.990101337 -22.684099197 -3.692599773 0.612299681 35.247787476 3.565700293 4.41119957 13.9666996 4.127400875 3.686499357 -2.829100132 -12.647104263 -22.389900208 -3.326299906 30.901094437 -29.843097687 -10.200098991 8.240797997 -14.638598442 4.409099579 0.0 -0.0 0.0 -42.985740662 -82.67150116 -0.601263285 12.416499138 -20.426303864 -2.245500088 0.0 -0.0 33.550899506 13.500500679 -21.172801971 -4.956000328 -7.125 0.0 0.0 -9.610899925 8.506798744 8.202798843 0.0 -0.0 0.0 77.097351074 86.10760498 28.843055725 -13.758200645 22.388002396 -2.735301733 0.0 -0.0 28.451795578 -15.760398865 -3.521399975 0.993099928 7.125 -0.0 0.0 8.860599518 -33.540897369 2.515098572 
-0.004749298 25.493700027 0.230998993 -173.20880127 3.936988115 -175.046005249 0.0 -0.0 0.0 -8.301801682 -6.914099216 -34.034187317 3.254300594 11.0958004 32.603607178 3.968699932 -7.163001537 -36.431404114 0.023700001 -0.993700087 -2.73140049 0.0 -0.0 0.0 27.498600006 15.588199615 -29.593000412 -2.195699692 -9.26239872 26.619596481 -0.178800628 -27.614709854 -39.545509338 -1.70930016 8.232300758 -23.422008514 -3.857000589 0.854500651 35.294311523 3.683199644 4.695199966 14.042699814 4.241099834 3.821399927 -2.805899858 -12.604301453 -22.467102051 -3.507000685 31.107500076 -29.911800385 -10.342102051 8.258000374 -14.65680027 4.444199562 0.0 -0.0 0.0 -40.271018982 -83.56111908 -4.206343651 11.873000145 -19.613899231 -2.059500694 0.0 -0.0 34.430999756 14.100998878 -20.777997971 -5.092399597 -7.125 0.0 0.0 -9.215699196 8.835398674 7.795101166 0.0 -0.0 0.0 74.782211304 86.699272156 26.329584122 -13.441299438 21.930295944 -2.615798235 0.0 -0.0 28.731897354 -15.734899521 -3.712899923 1.04519999 7.125 -0.0 0.0 8.904497147 -33.736495972 2.485101938 
-0.002149582 25.456399918 0.29309845 -173.107498169 4.10400486 -175.14201355 0.0 -0.0 0.0 -8.140200615 -6.785800934 -34.228794098 3.262499332 11.108301163 32.645900726 3.986000299 -7.225901604 -36.508598328 0.029899998 -1.115799785 -3.067599058 0.0 -0.0 0.0 27.647705078 15.689400673 -29.686502457 -2.187300682 -9.245801926 26.567300797 -0.064599589 -28.045093536 -39.569194794 -1.770600319 8.370898247 -23.846300125 -3.960000277 1.000299692 35.528598785 3.770700216 4.859899521 14.026600838 4.314698696 3.900999308 -2.931699991 -12.513502121 -22.497501373 -3.670298576 31.157096863 -29.888605118 -10.538000107 8.257302284 -14.636304855 4.403599739 0.0 -0.0 0.0 -36.972354889 -84.18081665 -8.295952797 11.460201263 -18.99020195 -1.92300117 0.0 -0.0 35.029102325 14.4039011 -20.609903336 -5.165800571 -7.125 0.0 0.0 -9.016599655 8.970099449 7.597699165 0.0 -0.0 0.0 74.107116699 87.220748901 25.070810318 -13.192996979 21.569297791 -2.523798704 0.0 -0.0 29.522901535 -15.592398643 -3.814299583 1.063500047 7.125 -0.0 0.0 9.03249836 -33.834999084 2.499800682 
0.005050659 25.430400848 0.349601746 -173.238998413 4.3329916 -175.484008789 0.0 -0.0 0.0 -8.290200233 -6.477699757 -34.14630127 3.276599884 11.130002022 32.719402313 4.006400108 -7.538299084 -36.573295593 0.0233 -0.984700084 -2.706800461 0.0 -0.0 0.0 27.583200455 15.868103981 -29.407205582 -2.173600197 -9.218802452 26.482103348 0.044698142 -28.399499893 -39.524505615 -1.817100525 8.47420311 -24.16390419 -4.359500408 1.220600128 36.026000977 3.808099031 5.041900635 14.035200119 4.470601082 3.991801262 -3.12520051 -12.421900749 -22.518600464 -3.898799181 31.148603439 -29.847002029 -10.713301659 8.237797737 -14.59840107 4.363800049 0.0 -0.0 0.0 -34.298366547 -84.432182312 -11.494836807 11.35819912 -18.835300446 -1.889999628 0.0 -0.0 35.257701874 14.061599731 -20.861501694 -5.096999645 -7.125 0.0 0.0 -9.243700027 8.755996704 7.834299564 0.0 -0.0 0.0 68.578231812 87.66166687 19.834096909 -12.971697807 21.245698929 -2.442999125 0.0 -0.0 29.468708038 -15.493801117 -3.92220068 1.086300254 7.125 -0.0 0.0 9.125999451 -33.941692352 2.502301693 
-0.002149582 25.406799316 0.413799286 -173.177398682 3.996003389 -175.319015503 0.0 -0.0 0.0 -8.163101196 -6.960698605 -34.554992676 3.277499914 11.131299019 32.723899841 3.949599981 -7.692699432 -36.281509399 0.009299997 -0.624299884 -1.715399742 0.0 -0.0 0.0 27.479700089 15.791400909 -29.949197769 -2.172600508 -9.21680069 26.47590065 -0.191501319 -27.743001938 -39.772712708 -1.92650032 8.711200714 -24.896003723 -4.026198864 1.005299091 35.90279007 3.830399275 4.875299454 14.005599022 4.383200169 3.919000387 -3.090399981 -12.473900795 -22.543897629 -4.295698643 31.225908279 -29.880004883 -10.587702751 8.202798843 -14.560599327 4.494000912 0.0 -0.0 0.0 -31.744773865 -84.683486938 -14.793698311 11.299002647 -18.745101929 -1.870900512 0.0 -0.0 35.621299744 14.79470253 -21.155899048 -5.445001125 -7.125 0.0 0.0 -8.788898468 8.373399734 7.506599903 0.0 -0.0 0.0 63.630649567 88.220176697 14.494332314 -12.66890049 20.800201416 -2.334400654 0.0 -0.0 29.995698929 -15.377399445 -3.707399845 1.018799782 7.125 -0.0 0.0 9.193497658 -33.717502594 2.571799755 
0.015350342 25.380699158 0.471401215 -172.869094849 4.996005058 -175.302001953 0.0 -0.0 0.0 -7.772198677 -6.038700104 -34.793895721 3.277399778 11.131100655 32.723194122 3.933401346 -7.678802013 -36.203998566 0.005900001 -0.496700019 -1.36469996 0.0 -0.0 0.0 28.002403259 16.383405685 -29.844005585 -2.167700291 -9.206903458 26.444702148 -0.448098421 -26.980302811 -40.007900238 -2.012800455 8.892803192 -25.460504532 -4.519599438 1.624499202 35.844993591 3.979498863 5.481299877 14.053299904 4.589700222 4.179600239 -3.117900133 -12.472697258 -22.538198471 -4.534298897 31.291706085 -29.855901718 -10.557402611 8.196598053 -14.519698143 4.549900055 0.0 -0.0 0.0 -28.069343567 -85.227920532 -19.73708725 11.055300713 -18.372898102 -1.793300152 0.0 -0.0 36.280899048 15.865199089 -21.464502335 -5.937201023 -7.125 0.0 0.0 -8.123996735 7.929198265 6.998198509 0.0 -0.0 0.0 56.747783661 88.790176392 7.050604343 -12.343198776 20.317302704 -2.219999313 0.0 -0.0 30.676101685 -15.181099892 -3.377399683 0.915800095 7.125 -0.0 0.0 9.311299324 -33.372989655 2.684201002 
